<mxfile host="app.diagrams.net" modified="2023-07-22T07:20:52.005Z" agent="Mozilla/5.0 (Windows NT 10.0; Win64; x64) AppleWebKit/537.36 (KHTML, like Gecko) Chrome/114.0.0.0 Safari/537.36" etag="CmPx3PcVreivffLGxJuy" version="21.6.1" type="github">
  <diagram name="第 1 页" id="tZjiIvVyGuZXKppYPTmS">
    <mxGraphModel dx="1434" dy="756" grid="0" gridSize="10" guides="1" tooltips="1" connect="1" arrows="1" fold="1" page="1" pageScale="3" pageWidth="827" pageHeight="1169" background="none" math="0" shadow="0">
      <root>
        <mxCell id="0" />
        <mxCell id="1" parent="0" />
        <mxCell id="ZqoyViFeMAxRP_JBuJFi-91" style="edgeStyle=none;rounded=0;orthogonalLoop=1;jettySize=auto;html=1;exitX=1;exitY=0;exitDx=0;exitDy=0;entryX=0.5;entryY=1;entryDx=0;entryDy=0;" parent="1" source="ZqoyViFeMAxRP_JBuJFi-1" target="ZqoyViFeMAxRP_JBuJFi-10" edge="1">
          <mxGeometry relative="1" as="geometry" />
        </mxCell>
        <mxCell id="ZqoyViFeMAxRP_JBuJFi-93" style="edgeStyle=none;rounded=0;orthogonalLoop=1;jettySize=auto;html=1;exitX=1;exitY=1;exitDx=0;exitDy=0;entryX=0.411;entryY=-0.15;entryDx=0;entryDy=0;entryPerimeter=0;" parent="1" source="ZqoyViFeMAxRP_JBuJFi-1" target="ZqoyViFeMAxRP_JBuJFi-11" edge="1">
          <mxGeometry relative="1" as="geometry" />
        </mxCell>
        <mxCell id="ZqoyViFeMAxRP_JBuJFi-1" value="&lt;b&gt;系统目录&lt;/b&gt;" style="rounded=0;whiteSpace=wrap;html=1;fillColor=#60a917;fontColor=#ffffff;strokeColor=#2D7600;" parent="1" vertex="1">
          <mxGeometry x="10" y="310" width="90" height="20" as="geometry" />
        </mxCell>
        <mxCell id="ZqoyViFeMAxRP_JBuJFi-96" style="edgeStyle=none;rounded=0;orthogonalLoop=1;jettySize=auto;html=1;exitX=1;exitY=0.75;exitDx=0;exitDy=0;entryX=0.25;entryY=0;entryDx=0;entryDy=0;" parent="1" source="ZqoyViFeMAxRP_JBuJFi-10" target="ZqoyViFeMAxRP_JBuJFi-16" edge="1">
          <mxGeometry relative="1" as="geometry" />
        </mxCell>
        <mxCell id="ZqoyViFeMAxRP_JBuJFi-97" style="edgeStyle=none;rounded=0;orthogonalLoop=1;jettySize=auto;html=1;exitX=1;exitY=0;exitDx=0;exitDy=0;entryX=0.5;entryY=1;entryDx=0;entryDy=0;" parent="1" source="ZqoyViFeMAxRP_JBuJFi-10" target="ZqoyViFeMAxRP_JBuJFi-12" edge="1">
          <mxGeometry relative="1" as="geometry" />
        </mxCell>
        <mxCell id="ZqoyViFeMAxRP_JBuJFi-98" style="edgeStyle=none;rounded=0;orthogonalLoop=1;jettySize=auto;html=1;exitX=1;exitY=0.25;exitDx=0;exitDy=0;entryX=0;entryY=0.5;entryDx=0;entryDy=0;" parent="1" source="ZqoyViFeMAxRP_JBuJFi-10" target="ZqoyViFeMAxRP_JBuJFi-13" edge="1">
          <mxGeometry relative="1" as="geometry" />
        </mxCell>
        <mxCell id="ZqoyViFeMAxRP_JBuJFi-99" style="edgeStyle=none;rounded=0;orthogonalLoop=1;jettySize=auto;html=1;exitX=1;exitY=0.25;exitDx=0;exitDy=0;entryX=0;entryY=0.25;entryDx=0;entryDy=0;" parent="1" source="ZqoyViFeMAxRP_JBuJFi-10" target="ZqoyViFeMAxRP_JBuJFi-14" edge="1">
          <mxGeometry relative="1" as="geometry" />
        </mxCell>
        <mxCell id="ZqoyViFeMAxRP_JBuJFi-10" value="&lt;b&gt;训练目录&lt;/b&gt;" style="rounded=0;whiteSpace=wrap;html=1;fillColor=#60a917;fontColor=#ffffff;strokeColor=#2D7600;" parent="1" vertex="1">
          <mxGeometry x="140" y="150" width="90" height="20" as="geometry" />
        </mxCell>
        <mxCell id="ZqoyViFeMAxRP_JBuJFi-100" style="edgeStyle=none;rounded=0;orthogonalLoop=1;jettySize=auto;html=1;exitX=1;exitY=0.25;exitDx=0;exitDy=0;entryX=0;entryY=0.75;entryDx=0;entryDy=0;" parent="1" source="ZqoyViFeMAxRP_JBuJFi-11" target="ZqoyViFeMAxRP_JBuJFi-64" edge="1">
          <mxGeometry relative="1" as="geometry" />
        </mxCell>
        <mxCell id="ZqoyViFeMAxRP_JBuJFi-101" style="edgeStyle=none;rounded=0;orthogonalLoop=1;jettySize=auto;html=1;exitX=1;exitY=0.5;exitDx=0;exitDy=0;entryX=0;entryY=0.5;entryDx=0;entryDy=0;" parent="1" source="ZqoyViFeMAxRP_JBuJFi-11" target="ZqoyViFeMAxRP_JBuJFi-65" edge="1">
          <mxGeometry relative="1" as="geometry" />
        </mxCell>
        <mxCell id="ZqoyViFeMAxRP_JBuJFi-102" style="edgeStyle=none;rounded=0;orthogonalLoop=1;jettySize=auto;html=1;exitX=1;exitY=0.75;exitDx=0;exitDy=0;entryX=0;entryY=0.25;entryDx=0;entryDy=0;" parent="1" source="ZqoyViFeMAxRP_JBuJFi-11" target="ZqoyViFeMAxRP_JBuJFi-66" edge="1">
          <mxGeometry relative="1" as="geometry" />
        </mxCell>
        <mxCell id="ZqoyViFeMAxRP_JBuJFi-103" style="edgeStyle=none;rounded=0;orthogonalLoop=1;jettySize=auto;html=1;exitX=1;exitY=1;exitDx=0;exitDy=0;entryX=0;entryY=0;entryDx=0;entryDy=0;" parent="1" source="ZqoyViFeMAxRP_JBuJFi-11" target="ZqoyViFeMAxRP_JBuJFi-67" edge="1">
          <mxGeometry relative="1" as="geometry" />
        </mxCell>
        <mxCell id="ZqoyViFeMAxRP_JBuJFi-11" value="&lt;b&gt;测试目录&lt;/b&gt;" style="rounded=0;whiteSpace=wrap;html=1;fillColor=#60a917;fontColor=#ffffff;strokeColor=#2D7600;" parent="1" vertex="1">
          <mxGeometry x="140" y="520" width="90" height="20" as="geometry" />
        </mxCell>
        <mxCell id="ZqoyViFeMAxRP_JBuJFi-107" style="edgeStyle=none;rounded=0;orthogonalLoop=1;jettySize=auto;html=1;exitX=1;exitY=0.5;exitDx=0;exitDy=0;entryX=0;entryY=0.25;entryDx=0;entryDy=0;" parent="1" source="ZqoyViFeMAxRP_JBuJFi-12" target="ZqoyViFeMAxRP_JBuJFi-21" edge="1">
          <mxGeometry relative="1" as="geometry" />
        </mxCell>
        <mxCell id="ZqoyViFeMAxRP_JBuJFi-108" style="edgeStyle=none;rounded=0;orthogonalLoop=1;jettySize=auto;html=1;exitX=1;exitY=0.5;exitDx=0;exitDy=0;entryX=0;entryY=0.25;entryDx=0;entryDy=0;" parent="1" source="ZqoyViFeMAxRP_JBuJFi-12" target="ZqoyViFeMAxRP_JBuJFi-30" edge="1">
          <mxGeometry relative="1" as="geometry" />
        </mxCell>
        <mxCell id="ZqoyViFeMAxRP_JBuJFi-110" style="edgeStyle=none;rounded=0;orthogonalLoop=1;jettySize=auto;html=1;exitX=1;exitY=0.5;exitDx=0;exitDy=0;entryX=0;entryY=0.5;entryDx=0;entryDy=0;" parent="1" source="ZqoyViFeMAxRP_JBuJFi-12" target="ZqoyViFeMAxRP_JBuJFi-20" edge="1">
          <mxGeometry relative="1" as="geometry" />
        </mxCell>
        <mxCell id="ZqoyViFeMAxRP_JBuJFi-12" value="&lt;b&gt;娱乐&lt;/b&gt;" style="rounded=0;whiteSpace=wrap;html=1;fillColor=#60a917;fontColor=#ffffff;strokeColor=#2D7600;" parent="1" vertex="1">
          <mxGeometry x="280" y="40" width="50" height="20" as="geometry" />
        </mxCell>
        <mxCell id="ZqoyViFeMAxRP_JBuJFi-115" style="edgeStyle=none;rounded=0;orthogonalLoop=1;jettySize=auto;html=1;exitX=1;exitY=0.25;exitDx=0;exitDy=0;entryX=0;entryY=0.5;entryDx=0;entryDy=0;" parent="1" source="ZqoyViFeMAxRP_JBuJFi-13" target="ZqoyViFeMAxRP_JBuJFi-32" edge="1">
          <mxGeometry relative="1" as="geometry" />
        </mxCell>
        <mxCell id="ZqoyViFeMAxRP_JBuJFi-116" style="edgeStyle=none;rounded=0;orthogonalLoop=1;jettySize=auto;html=1;exitX=1;exitY=0.25;exitDx=0;exitDy=0;entryX=0;entryY=0.25;entryDx=0;entryDy=0;" parent="1" source="ZqoyViFeMAxRP_JBuJFi-13" target="ZqoyViFeMAxRP_JBuJFi-44" edge="1">
          <mxGeometry relative="1" as="geometry" />
        </mxCell>
        <mxCell id="ZqoyViFeMAxRP_JBuJFi-117" style="edgeStyle=none;rounded=0;orthogonalLoop=1;jettySize=auto;html=1;exitX=1;exitY=0.25;exitDx=0;exitDy=0;entryX=0;entryY=0.5;entryDx=0;entryDy=0;" parent="1" source="ZqoyViFeMAxRP_JBuJFi-13" target="ZqoyViFeMAxRP_JBuJFi-45" edge="1">
          <mxGeometry relative="1" as="geometry" />
        </mxCell>
        <mxCell id="ZqoyViFeMAxRP_JBuJFi-13" value="&lt;b&gt;体育&lt;/b&gt;" style="rounded=0;whiteSpace=wrap;html=1;fillColor=#60a917;fontColor=#ffffff;strokeColor=#2D7600;" parent="1" vertex="1">
          <mxGeometry x="280" y="140" width="50" height="20" as="geometry" />
        </mxCell>
        <mxCell id="ZqoyViFeMAxRP_JBuJFi-118" style="edgeStyle=none;rounded=0;orthogonalLoop=1;jettySize=auto;html=1;exitX=1;exitY=0.25;exitDx=0;exitDy=0;entryX=0;entryY=0.25;entryDx=0;entryDy=0;" parent="1" source="ZqoyViFeMAxRP_JBuJFi-14" target="ZqoyViFeMAxRP_JBuJFi-43" edge="1">
          <mxGeometry relative="1" as="geometry" />
        </mxCell>
        <mxCell id="ZqoyViFeMAxRP_JBuJFi-119" style="edgeStyle=none;rounded=0;orthogonalLoop=1;jettySize=auto;html=1;exitX=1;exitY=0.25;exitDx=0;exitDy=0;entryX=0;entryY=0.25;entryDx=0;entryDy=0;" parent="1" source="ZqoyViFeMAxRP_JBuJFi-14" target="ZqoyViFeMAxRP_JBuJFi-47" edge="1">
          <mxGeometry relative="1" as="geometry" />
        </mxCell>
        <mxCell id="ZqoyViFeMAxRP_JBuJFi-120" style="edgeStyle=none;rounded=0;orthogonalLoop=1;jettySize=auto;html=1;exitX=1;exitY=0.25;exitDx=0;exitDy=0;entryX=0;entryY=0.25;entryDx=0;entryDy=0;" parent="1" source="ZqoyViFeMAxRP_JBuJFi-14" target="ZqoyViFeMAxRP_JBuJFi-48" edge="1">
          <mxGeometry relative="1" as="geometry" />
        </mxCell>
        <mxCell id="ZqoyViFeMAxRP_JBuJFi-14" value="&lt;b&gt;时事&lt;/b&gt;" style="rounded=0;whiteSpace=wrap;html=1;fillColor=#60a917;fontColor=#ffffff;strokeColor=#2D7600;" parent="1" vertex="1">
          <mxGeometry x="280" y="230" width="50" height="20" as="geometry" />
        </mxCell>
        <mxCell id="ZqoyViFeMAxRP_JBuJFi-121" style="edgeStyle=none;rounded=0;orthogonalLoop=1;jettySize=auto;html=1;exitX=1;exitY=0.5;exitDx=0;exitDy=0;entryX=0;entryY=0.5;entryDx=0;entryDy=0;" parent="1" source="ZqoyViFeMAxRP_JBuJFi-16" target="ZqoyViFeMAxRP_JBuJFi-46" edge="1">
          <mxGeometry relative="1" as="geometry" />
        </mxCell>
        <mxCell id="ZqoyViFeMAxRP_JBuJFi-122" style="edgeStyle=none;rounded=0;orthogonalLoop=1;jettySize=auto;html=1;exitX=1;exitY=0.5;exitDx=0;exitDy=0;entryX=0;entryY=0;entryDx=0;entryDy=0;" parent="1" source="ZqoyViFeMAxRP_JBuJFi-16" target="ZqoyViFeMAxRP_JBuJFi-39" edge="1">
          <mxGeometry relative="1" as="geometry" />
        </mxCell>
        <mxCell id="ZqoyViFeMAxRP_JBuJFi-123" style="edgeStyle=none;rounded=0;orthogonalLoop=1;jettySize=auto;html=1;exitX=1;exitY=0.5;exitDx=0;exitDy=0;entryX=0;entryY=0.25;entryDx=0;entryDy=0;" parent="1" source="ZqoyViFeMAxRP_JBuJFi-16" target="ZqoyViFeMAxRP_JBuJFi-34" edge="1">
          <mxGeometry relative="1" as="geometry" />
        </mxCell>
        <mxCell id="ZqoyViFeMAxRP_JBuJFi-16" value="&lt;b&gt;热点&lt;/b&gt;" style="rounded=0;whiteSpace=wrap;html=1;fillColor=#60a917;fontColor=#ffffff;strokeColor=#2D7600;" parent="1" vertex="1">
          <mxGeometry x="280" y="330" width="50" height="20" as="geometry" />
        </mxCell>
        <mxCell id="ZqoyViFeMAxRP_JBuJFi-20" value="&lt;b&gt;文档1&lt;/b&gt;" style="rounded=0;whiteSpace=wrap;html=1;fillColor=#60a917;fontColor=#ffffff;strokeColor=#2D7600;" parent="1" vertex="1">
          <mxGeometry x="380" y="20" width="60" height="20" as="geometry" />
        </mxCell>
        <mxCell id="ZqoyViFeMAxRP_JBuJFi-21" value="&lt;b&gt;文档2&lt;/b&gt;" style="rounded=0;whiteSpace=wrap;html=1;fillColor=#60a917;fontColor=#ffffff;strokeColor=#2D7600;" parent="1" vertex="1">
          <mxGeometry x="380" y="50" width="60" height="20" as="geometry" />
        </mxCell>
        <mxCell id="ZqoyViFeMAxRP_JBuJFi-30" value="&lt;b&gt;&lt;font style=&quot;font-size: 13px;&quot;&gt;....&lt;/font&gt;文档n&lt;/b&gt;" style="rounded=0;whiteSpace=wrap;html=1;fillColor=#60a917;fontColor=#ffffff;strokeColor=#2D7600;" parent="1" vertex="1">
          <mxGeometry x="380" y="80" width="60" height="20" as="geometry" />
        </mxCell>
        <mxCell id="ZqoyViFeMAxRP_JBuJFi-32" value="&lt;b&gt;文档1&lt;/b&gt;" style="rounded=0;whiteSpace=wrap;html=1;fillColor=#60a917;fontColor=#ffffff;strokeColor=#2D7600;" parent="1" vertex="1">
          <mxGeometry x="380" y="120" width="60" height="20" as="geometry" />
        </mxCell>
        <mxCell id="ZqoyViFeMAxRP_JBuJFi-34" value="&lt;b&gt;...文档n&lt;/b&gt;" style="rounded=0;whiteSpace=wrap;html=1;fillColor=#60a917;fontColor=#ffffff;strokeColor=#2D7600;" parent="1" vertex="1">
          <mxGeometry x="380" y="380" width="60" height="20" as="geometry" />
        </mxCell>
        <mxCell id="ZqoyViFeMAxRP_JBuJFi-39" value="&lt;b&gt;文档2&lt;/b&gt;" style="rounded=0;whiteSpace=wrap;html=1;fillColor=#60a917;fontColor=#ffffff;strokeColor=#2D7600;" parent="1" vertex="1">
          <mxGeometry x="380" y="350" width="60" height="20" as="geometry" />
        </mxCell>
        <mxCell id="ZqoyViFeMAxRP_JBuJFi-43" value="&lt;b&gt;文档1&lt;/b&gt;" style="rounded=0;whiteSpace=wrap;html=1;fillColor=#60a917;fontColor=#ffffff;strokeColor=#2D7600;" parent="1" vertex="1">
          <mxGeometry x="380" y="220" width="60" height="20" as="geometry" />
        </mxCell>
        <mxCell id="ZqoyViFeMAxRP_JBuJFi-44" value="&lt;b&gt;文档2&lt;/b&gt;" style="rounded=0;whiteSpace=wrap;html=1;fillColor=#60a917;fontColor=#ffffff;strokeColor=#2D7600;" parent="1" vertex="1">
          <mxGeometry x="380" y="150" width="60" height="20" as="geometry" />
        </mxCell>
        <mxCell id="ZqoyViFeMAxRP_JBuJFi-45" value="&lt;b&gt;...文档n&lt;/b&gt;" style="rounded=0;whiteSpace=wrap;html=1;fillColor=#60a917;fontColor=#ffffff;strokeColor=#2D7600;" parent="1" vertex="1">
          <mxGeometry x="380" y="180" width="60" height="20" as="geometry" />
        </mxCell>
        <mxCell id="ZqoyViFeMAxRP_JBuJFi-46" value="&lt;b&gt;文档1&lt;/b&gt;" style="rounded=0;whiteSpace=wrap;html=1;fillColor=#60a917;fontColor=#ffffff;strokeColor=#2D7600;" parent="1" vertex="1">
          <mxGeometry x="380" y="320" width="60" height="20" as="geometry" />
        </mxCell>
        <mxCell id="ZqoyViFeMAxRP_JBuJFi-47" value="&lt;b&gt;文档2&lt;/b&gt;" style="rounded=0;whiteSpace=wrap;html=1;fillColor=#60a917;fontColor=#ffffff;strokeColor=#2D7600;" parent="1" vertex="1">
          <mxGeometry x="380" y="250" width="60" height="20" as="geometry" />
        </mxCell>
        <mxCell id="ZqoyViFeMAxRP_JBuJFi-48" value="&lt;b&gt;...文档n&lt;/b&gt;" style="rounded=0;whiteSpace=wrap;html=1;fillColor=#60a917;fontColor=#ffffff;strokeColor=#2D7600;" parent="1" vertex="1">
          <mxGeometry x="380" y="280" width="60" height="20" as="geometry" />
        </mxCell>
        <mxCell id="ZqoyViFeMAxRP_JBuJFi-124" style="edgeStyle=none;rounded=0;orthogonalLoop=1;jettySize=auto;html=1;exitX=1;exitY=0.5;exitDx=0;exitDy=0;entryX=0;entryY=0.5;entryDx=0;entryDy=0;exitPerimeter=0;" parent="1" source="ZqoyViFeMAxRP_JBuJFi-64" target="ZqoyViFeMAxRP_JBuJFi-68" edge="1">
          <mxGeometry relative="1" as="geometry" />
        </mxCell>
        <mxCell id="ZqoyViFeMAxRP_JBuJFi-125" style="edgeStyle=none;rounded=0;orthogonalLoop=1;jettySize=auto;html=1;exitX=1;exitY=0.5;exitDx=0;exitDy=0;entryX=0;entryY=0.25;entryDx=0;entryDy=0;" parent="1" source="ZqoyViFeMAxRP_JBuJFi-64" target="ZqoyViFeMAxRP_JBuJFi-69" edge="1">
          <mxGeometry relative="1" as="geometry" />
        </mxCell>
        <mxCell id="ZqoyViFeMAxRP_JBuJFi-126" style="edgeStyle=none;rounded=0;orthogonalLoop=1;jettySize=auto;html=1;exitX=1;exitY=0.5;exitDx=0;exitDy=0;entryX=0;entryY=0.25;entryDx=0;entryDy=0;" parent="1" source="ZqoyViFeMAxRP_JBuJFi-64" target="ZqoyViFeMAxRP_JBuJFi-70" edge="1">
          <mxGeometry relative="1" as="geometry" />
        </mxCell>
        <mxCell id="ZqoyViFeMAxRP_JBuJFi-64" value="&lt;b&gt;娱乐&lt;/b&gt;" style="rounded=0;whiteSpace=wrap;html=1;fillColor=#60a917;fontColor=#ffffff;strokeColor=#2D7600;" parent="1" vertex="1">
          <mxGeometry x="280" y="440" width="50" height="20" as="geometry" />
        </mxCell>
        <mxCell id="ZqoyViFeMAxRP_JBuJFi-127" style="edgeStyle=none;rounded=0;orthogonalLoop=1;jettySize=auto;html=1;exitX=1;exitY=0.5;exitDx=0;exitDy=0;entryX=0;entryY=0.25;entryDx=0;entryDy=0;" parent="1" source="ZqoyViFeMAxRP_JBuJFi-65" target="ZqoyViFeMAxRP_JBuJFi-71" edge="1">
          <mxGeometry relative="1" as="geometry" />
        </mxCell>
        <mxCell id="ZqoyViFeMAxRP_JBuJFi-128" style="edgeStyle=none;rounded=0;orthogonalLoop=1;jettySize=auto;html=1;exitX=1;exitY=0.5;exitDx=0;exitDy=0;entryX=0;entryY=0.25;entryDx=0;entryDy=0;" parent="1" source="ZqoyViFeMAxRP_JBuJFi-65" target="ZqoyViFeMAxRP_JBuJFi-72" edge="1">
          <mxGeometry relative="1" as="geometry" />
        </mxCell>
        <mxCell id="ZqoyViFeMAxRP_JBuJFi-129" style="edgeStyle=none;rounded=0;orthogonalLoop=1;jettySize=auto;html=1;exitX=1;exitY=0.5;exitDx=0;exitDy=0;entryX=0;entryY=0.5;entryDx=0;entryDy=0;" parent="1" source="ZqoyViFeMAxRP_JBuJFi-65" target="ZqoyViFeMAxRP_JBuJFi-73" edge="1">
          <mxGeometry relative="1" as="geometry" />
        </mxCell>
        <mxCell id="ZqoyViFeMAxRP_JBuJFi-65" value="&lt;b&gt;体育&lt;/b&gt;" style="rounded=0;whiteSpace=wrap;html=1;fillColor=#60a917;fontColor=#ffffff;strokeColor=#2D7600;" parent="1" vertex="1">
          <mxGeometry x="280" y="530" width="50" height="20" as="geometry" />
        </mxCell>
        <mxCell id="ZqoyViFeMAxRP_JBuJFi-130" style="edgeStyle=none;rounded=0;orthogonalLoop=1;jettySize=auto;html=1;exitX=1;exitY=0.5;exitDx=0;exitDy=0;entryX=0;entryY=0.5;entryDx=0;entryDy=0;" parent="1" source="ZqoyViFeMAxRP_JBuJFi-66" target="ZqoyViFeMAxRP_JBuJFi-74" edge="1">
          <mxGeometry relative="1" as="geometry" />
        </mxCell>
        <mxCell id="ZqoyViFeMAxRP_JBuJFi-131" style="edgeStyle=none;rounded=0;orthogonalLoop=1;jettySize=auto;html=1;exitX=1;exitY=0.5;exitDx=0;exitDy=0;entryX=0;entryY=0.5;entryDx=0;entryDy=0;" parent="1" source="ZqoyViFeMAxRP_JBuJFi-66" target="ZqoyViFeMAxRP_JBuJFi-75" edge="1">
          <mxGeometry relative="1" as="geometry" />
        </mxCell>
        <mxCell id="ZqoyViFeMAxRP_JBuJFi-132" style="edgeStyle=none;rounded=0;orthogonalLoop=1;jettySize=auto;html=1;exitX=1;exitY=0.5;exitDx=0;exitDy=0;entryX=0;entryY=0.5;entryDx=0;entryDy=0;" parent="1" source="ZqoyViFeMAxRP_JBuJFi-66" target="ZqoyViFeMAxRP_JBuJFi-76" edge="1">
          <mxGeometry relative="1" as="geometry" />
        </mxCell>
        <mxCell id="ZqoyViFeMAxRP_JBuJFi-66" value="&lt;b&gt;时事&lt;/b&gt;" style="rounded=0;whiteSpace=wrap;html=1;fillColor=#60a917;fontColor=#ffffff;strokeColor=#2D7600;" parent="1" vertex="1">
          <mxGeometry x="280" y="630" width="50" height="20" as="geometry" />
        </mxCell>
        <mxCell id="ZqoyViFeMAxRP_JBuJFi-136" style="edgeStyle=none;rounded=0;orthogonalLoop=1;jettySize=auto;html=1;exitX=1;exitY=0.5;exitDx=0;exitDy=0;entryX=0;entryY=0.75;entryDx=0;entryDy=0;" parent="1" source="ZqoyViFeMAxRP_JBuJFi-67" target="ZqoyViFeMAxRP_JBuJFi-77" edge="1">
          <mxGeometry relative="1" as="geometry" />
        </mxCell>
        <mxCell id="ZqoyViFeMAxRP_JBuJFi-137" style="edgeStyle=none;rounded=0;orthogonalLoop=1;jettySize=auto;html=1;exitX=1;exitY=0.5;exitDx=0;exitDy=0;entryX=0;entryY=0.25;entryDx=0;entryDy=0;" parent="1" source="ZqoyViFeMAxRP_JBuJFi-67" target="ZqoyViFeMAxRP_JBuJFi-78" edge="1">
          <mxGeometry relative="1" as="geometry" />
        </mxCell>
        <mxCell id="ZqoyViFeMAxRP_JBuJFi-138" style="edgeStyle=none;rounded=0;orthogonalLoop=1;jettySize=auto;html=1;exitX=1;exitY=0.5;exitDx=0;exitDy=0;entryX=0;entryY=0.25;entryDx=0;entryDy=0;" parent="1" source="ZqoyViFeMAxRP_JBuJFi-67" target="ZqoyViFeMAxRP_JBuJFi-79" edge="1">
          <mxGeometry relative="1" as="geometry" />
        </mxCell>
        <mxCell id="ZqoyViFeMAxRP_JBuJFi-67" value="&lt;b&gt;热点&lt;/b&gt;" style="rounded=0;whiteSpace=wrap;html=1;fillColor=#60a917;fontColor=#ffffff;strokeColor=#2D7600;" parent="1" vertex="1">
          <mxGeometry x="280" y="720" width="50" height="20" as="geometry" />
        </mxCell>
        <mxCell id="ZqoyViFeMAxRP_JBuJFi-68" value="&lt;b&gt;文档1&lt;/b&gt;" style="rounded=0;whiteSpace=wrap;html=1;fillColor=#60a917;fontColor=#ffffff;strokeColor=#2D7600;" parent="1" vertex="1">
          <mxGeometry x="380" y="420" width="60" height="20" as="geometry" />
        </mxCell>
        <mxCell id="ZqoyViFeMAxRP_JBuJFi-69" value="&lt;b&gt;文档2&lt;/b&gt;" style="rounded=0;whiteSpace=wrap;html=1;fillColor=#60a917;fontColor=#ffffff;strokeColor=#2D7600;" parent="1" vertex="1">
          <mxGeometry x="380" y="450" width="60" height="20" as="geometry" />
        </mxCell>
        <mxCell id="ZqoyViFeMAxRP_JBuJFi-70" value="&lt;b&gt;...文档n&lt;/b&gt;" style="rounded=0;whiteSpace=wrap;html=1;fillColor=#60a917;fontColor=#ffffff;strokeColor=#2D7600;" parent="1" vertex="1">
          <mxGeometry x="380" y="480" width="60" height="20" as="geometry" />
        </mxCell>
        <mxCell id="ZqoyViFeMAxRP_JBuJFi-71" value="&lt;b&gt;文档1&lt;/b&gt;" style="rounded=0;whiteSpace=wrap;html=1;fillColor=#60a917;fontColor=#ffffff;strokeColor=#2D7600;" parent="1" vertex="1">
          <mxGeometry x="380" y="520" width="60" height="20" as="geometry" />
        </mxCell>
        <mxCell id="ZqoyViFeMAxRP_JBuJFi-72" value="&lt;b&gt;文档2&lt;/b&gt;" style="rounded=0;whiteSpace=wrap;html=1;fillColor=#60a917;fontColor=#ffffff;strokeColor=#2D7600;" parent="1" vertex="1">
          <mxGeometry x="380" y="550" width="60" height="20" as="geometry" />
        </mxCell>
        <mxCell id="ZqoyViFeMAxRP_JBuJFi-73" value="&lt;b&gt;...文档n&lt;/b&gt;" style="rounded=0;whiteSpace=wrap;html=1;fillColor=#60a917;fontColor=#ffffff;strokeColor=#2D7600;" parent="1" vertex="1">
          <mxGeometry x="380" y="580" width="60" height="20" as="geometry" />
        </mxCell>
        <mxCell id="ZqoyViFeMAxRP_JBuJFi-74" value="&lt;b&gt;文档1&lt;/b&gt;" style="rounded=0;whiteSpace=wrap;html=1;fillColor=#60a917;fontColor=#ffffff;strokeColor=#2D7600;" parent="1" vertex="1">
          <mxGeometry x="380" y="610" width="60" height="20" as="geometry" />
        </mxCell>
        <mxCell id="ZqoyViFeMAxRP_JBuJFi-75" value="&lt;b&gt;文档2&lt;/b&gt;" style="rounded=0;whiteSpace=wrap;html=1;fillColor=#60a917;fontColor=#ffffff;strokeColor=#2D7600;" parent="1" vertex="1">
          <mxGeometry x="380" y="640" width="60" height="20" as="geometry" />
        </mxCell>
        <mxCell id="ZqoyViFeMAxRP_JBuJFi-76" value="&lt;b&gt;...文档n&lt;/b&gt;" style="rounded=0;whiteSpace=wrap;html=1;fillColor=#60a917;fontColor=#ffffff;strokeColor=#2D7600;" parent="1" vertex="1">
          <mxGeometry x="380" y="670" width="60" height="20" as="geometry" />
        </mxCell>
        <mxCell id="ZqoyViFeMAxRP_JBuJFi-77" value="&lt;b&gt;文档1&lt;/b&gt;" style="rounded=0;whiteSpace=wrap;html=1;fillColor=#60a917;fontColor=#ffffff;strokeColor=#2D7600;" parent="1" vertex="1">
          <mxGeometry x="380" y="700" width="60" height="20" as="geometry" />
        </mxCell>
        <mxCell id="ZqoyViFeMAxRP_JBuJFi-78" value="&lt;b&gt;文档2&lt;/b&gt;" style="rounded=0;whiteSpace=wrap;html=1;fillColor=#60a917;fontColor=#ffffff;strokeColor=#2D7600;" parent="1" vertex="1">
          <mxGeometry x="380" y="730" width="60" height="20" as="geometry" />
        </mxCell>
        <mxCell id="ZqoyViFeMAxRP_JBuJFi-79" value="&lt;b&gt;...文档n&lt;/b&gt;" style="rounded=0;whiteSpace=wrap;html=1;fillColor=#60a917;fontColor=#ffffff;strokeColor=#2D7600;" parent="1" vertex="1">
          <mxGeometry x="380" y="760" width="60" height="20" as="geometry" />
        </mxCell>
        <object placeholders="1" c4Name="System name" c4Type="SystemScopeBoundary" c4Application="Software System" label="&lt;font style=&quot;font-size: 16px&quot;&gt;&lt;b&gt;&lt;div style=&quot;text-align: left&quot;&gt;%c4Name%&lt;/div&gt;&lt;/b&gt;&lt;/font&gt;&lt;div style=&quot;text-align: left&quot;&gt;[%c4Application%]&lt;/div&gt;" id="ZqoyViFeMAxRP_JBuJFi-139">
          <mxCell style="rounded=1;fontSize=11;whiteSpace=wrap;html=1;dashed=1;arcSize=20;fillColor=none;strokeColor=#666666;fontColor=#333333;labelBackgroundColor=none;align=left;verticalAlign=bottom;labelBorderColor=none;spacingTop=0;spacing=10;dashPattern=8 4;metaEdit=1;rotatable=0;perimeter=rectanglePerimeter;noLabel=0;labelPadding=0;allowArrows=0;connectable=0;expand=0;recursiveResize=0;editable=1;pointerEvents=0;absoluteArcSize=1;points=[[0.25,0,0],[0.5,0,0],[0.75,0,0],[1,0.25,0],[1,0.5,0],[1,0.75,0],[0.75,1,0],[0.5,1,0],[0.25,1,0],[0,0.75,0],[0,0.5,0],[0,0.25,0]];" parent="1" vertex="1">
            <mxGeometry x="136" y="16" width="351" height="388" as="geometry" />
          </mxCell>
        </object>
        <object placeholders="1" c4Name="System name" c4Type="SystemScopeBoundary" c4Application="Software System" label="&lt;font style=&quot;font-size: 16px&quot;&gt;&lt;b&gt;&lt;div style=&quot;text-align: left&quot;&gt;%c4Name%&lt;/div&gt;&lt;/b&gt;&lt;/font&gt;&lt;div style=&quot;text-align: left&quot;&gt;[%c4Application%]&lt;/div&gt;" id="ZqoyViFeMAxRP_JBuJFi-140">
          <mxCell style="rounded=1;fontSize=11;whiteSpace=wrap;html=1;dashed=1;arcSize=20;fillColor=none;strokeColor=#666666;fontColor=#333333;labelBackgroundColor=none;align=left;verticalAlign=bottom;labelBorderColor=none;spacingTop=0;spacing=10;dashPattern=8 4;metaEdit=1;rotatable=0;perimeter=rectanglePerimeter;noLabel=0;labelPadding=0;allowArrows=0;connectable=0;expand=0;recursiveResize=0;editable=1;pointerEvents=0;absoluteArcSize=1;points=[[0.25,0,0],[0.5,0,0],[0.75,0,0],[1,0.25,0],[1,0.5,0],[1,0.75,0],[0.75,1,0],[0.5,1,0],[0.25,1,0],[0,0.75,0],[0,0.5,0],[0,0.25,0]];" parent="1" vertex="1">
            <mxGeometry x="138" y="413" width="349" height="372" as="geometry" />
          </mxCell>
        </object>
      </root>
    </mxGraphModel>
  </diagram>
</mxfile>
